<?xml version="1.0" encoding="UTF-8" standalone="no"?>
<!-- Created with Inkscape (http://www.inkscape.org/) -->

<svg
   width="210mm"
   height="210mm"
   viewBox="55.65 54.49 77 77"
   version="1.1"
   id="svg1"
   inkscape:export-filename="位图.svg"
   inkscape:export-xdpi="96"
   inkscape:export-ydpi="96"
   inkscape:version="1.4.4 (dcaf3e7, 2026-05-05)"
   sodipodi:docname="绘图.svg"
   xmlns:inkscape="http://www.inkscape.org/namespaces/inkscape"
   xmlns:sodipodi="http://sodipodi.sourceforge.net/DTD/sodipodi-0.dtd"
   xmlns="http://www.w3.org/2000/svg"
   xmlns:svg="http://www.w3.org/2000/svg">
  <sodipodi:namedview
     id="namedview1"
     pagecolor="#000000"
     bordercolor="#000000"
     borderopacity="0.25"
     inkscape:showpageshadow="2"
     inkscape:pageopacity="0.0"
     inkscape:pagecheckerboard="true"
     inkscape:deskcolor="#d1d1d1"
     inkscape:document-units="mm"
     inkscape:zoom="0.69219276"
     inkscape:cx="397.28818"
     inkscape:cy="445.6851"
     inkscape:window-width="1920"
     inkscape:window-height="991"
     inkscape:window-x="-9"
     inkscape:window-y="-9"
     inkscape:window-maximized="1"
     inkscape:current-layer="layer1" />
  <defs
     id="defs1" />
  <g
     inkscape:label="图层 1"
     inkscape:groupmode="layer"
     id="layer1">
    <path
       id="rect1"
       style="fill:#000000;fill-opacity:1;stroke-width:0.264583"
       d="m 55.656052,75.301347 c 0.149014,3.08949 0.248753,6.18065 0.326595,9.272819 0.101448,3.443421 0.07476,6.889114 0.100253,10.333736 1.03e-4,1.364587 0.03252,2.72855 0.07648,4.092257 h 76.77103 c -0.005,-2.232345 0.009,-4.464824 0.0269,-6.697266 0.0341,-4.155537 -0.0259,-8.311387 -0.0486,-12.466939 -0.007,-1.511562 -0.0173,-3.023102 -0.031,-4.534607 z" />
    <path
       id="rect2"
       style="fill:#6b6b6b;stroke-width:0.264583;fill-opacity:1"
       d="m 55.162524,103.20455 c 0.0044,0.12971 0.0087,0.25942 0.01292,0.38913 0.08499,2.76042 0.112648,5.52224 0.134358,8.28373 0.01853,0.54917 0.03786,1.09832 0.05736,1.64744 h 76.742607 c -0.10471,-2.81346 -0.19147,-5.62729 -0.25219,-8.44238 -0.0149,-0.62595 -0.0272,-1.25192 -0.0372,-1.87792 z" />
    <path
       id="rect3"
       style="fill:#a5a5a5;stroke-width:0.264583;fill-opacity:1"
       d="m 55.552165,118.87646 c 0.01755,0.56392 0.03412,1.12787 0.04909,1.69189 0.0306,1.21957 0.05394,2.43935 0.07183,3.65921 h 76.766892 c -0.0268,-1.78416 -0.0689,-3.56782 -0.12661,-5.3511 z" />
    <path
       id="rect4"
       style="fill:#000000;stroke-width:0.264583"
       d="m 55.726314,129.57917 c 8.65e-4,0.12747 0.0018,0.25494 0.0026,0.38241 h 76.769472 c -8e-5,-0.12747 -3.3e-4,-0.25494 -5.1e-4,-0.38241 z" />
    <ellipse
       style="fill:#ffcc00;stroke-width:0.264583"
       id="path19"
       cx="93.839767"
       cy="93.075287"
       rx="4.0135136"
       ry="20.832045" />
    <ellipse
       style="fill:#ffcc00;stroke-width:0.264583"
       id="path21"
       cx="94.604248"
       cy="122.12548"
       rx="1.3378378"
       ry="0.57335907" />
    <ellipse
       style="fill:#ffcc00;stroke-width:0.264583"
       id="path22"
       cx="94.030891"
       cy="121.74325"
       rx="4.2046332"
       ry="2.8667953" />
  </g>
  <g
     inkscape:groupmode="layer"
     id="layer3"
     inkscape:label="图层 2">
    <path
       id="path23"
       style="fill:#ffcc00;stroke-width:0.28657"
       inkscape:transform-center-x="0.06667077"
       inkscape:transform-center-y="-11.829261"
       d="m 93.407452,56.406286 c -3.490406,-0.0094 -20.163378,34.561292 -21.916735,37.566667 -1.753357,3.005374 -23.654344,34.552467 -21.917295,37.567227 1.73705,3.01475 40.140022,0.10792 43.630428,0.11728 3.490405,0.01 41.87651,3.12267 43.62987,0.1173 1.75335,-3.00537 -19.97608,-34.669766 -21.71314,-37.684516 -1.73705,-3.01475 -18.222722,-37.674583 -21.713128,-37.683958 z m 0.348313,8.560575 c 2.923513,0.0048 16.762325,29.021586 18.219915,31.545165 1.45759,2.523577 19.68583,29.025824 18.21992,31.544604 -1.46593,2.51879 -33.620087,-0.0549 -36.5436,-0.0598 -2.923514,-0.004 -35.086566,2.46381 -36.544156,-0.0598 -1.457593,-2.52357 16.858319,-28.966043 18.32424,-31.484838 1.46592,-2.518791 15.400167,-31.490191 18.323681,-31.485402 z" />
  </g>
</svg>
